<svg width="1113" height="195" viewBox="0 0 1113 195" fill="none" xmlns="http://www.w3.org/2000/svg">
<path d="M16.8617 87.4C12.6617 87 9.26172 87 6.26172 87.6C2.46172 88.2 0.461719 91 0.461719 94.4C0.461719 96.4 1.06172 98.6 2.66172 100.8C8.06172 108.8 29.6617 118.4 74.2617 122.6C53.2617 153.4 31.4617 186 14.6617 184.6C12.6617 184.4 12.8617 186.4 14.4617 188C30.2617 192.8 47.0617 174.6 82.8617 123.2C91.2617 123.8 100.062 124.2 109.862 124.4L110.462 124.6C135.262 137.8 158.262 162.2 174.462 190.4C176.462 193.6 181.262 189.2 180.862 187.8C174.862 165.4 169.462 145.4 164.662 123.2C179.662 122 201.862 119.6 206.262 116.6C208.462 115 210.262 110.4 209.462 111.2C206.262 111.4 181.262 115 163.462 117C155.062 73.8 149.262 45.4 149.262 17.6C149.262 14 149.462 10.2 149.662 6.59999H149.862L150.262 6C151.662 3.79999 145.462 -0.80001 143.462 0.99999V1.4H143.062L142.862 1.59999C127.462 35 107.662 71.4 85.0617 106.4C54.4617 93.4 26.8617 88.2 16.8617 87.4ZM109.862 118.6C104.062 115.4 98.0617 112.4 92.2617 109.6L94.2617 106.8C113.262 74.2 127.662 51.6 141.862 19.4C141.462 41 149.262 86.8 156.262 117.6H156.062C137.262 118 120.662 119 109.862 118.6ZM8.06172 97.8C5.26172 91.6 17.0617 92 19.6617 92.4C28.4617 93.4 52.0617 96.6 82.4617 110.2L78.0617 116.8C45.0617 114 11.8617 104.6 8.06172 97.8ZM154.662 123.8H157.662C161.062 138.8 165.062 153.6 169.262 169L164.462 163.2C151.662 147.6 136.262 135 120.262 124.8C129.262 124.8 141.262 124 154.662 123.8ZM98.0617 117.6C94.4617 117.6 90.6617 117.6 86.8617 117.4C87.8617 116.2 88.8617 114.8 89.6617 113.4L98.0617 117.6ZM208.98 128.8C209.58 131.2 214.78 135.2 216.38 133.8C224.18 127 229.78 116.4 239.98 109.8C241.78 117.6 242.98 122.2 244.98 126.6C246.18 128.8 249.98 130.8 251.58 130C256.98 126.4 261.98 122.4 270.98 115C271.58 116.8 272.58 119 273.98 121C275.78 123.4 277.78 125.8 280.78 127.8C285.18 130.6 289.98 131.8 294.18 131.8C305.58 131.8 318.58 122 321.58 116.6C323.98 112.2 321.38 110.6 320.78 111.6C317.98 116.4 296.18 126.2 289.78 126.2C286.98 126.2 284.58 125.2 282.38 123.8C278.38 120.4 277.38 113.2 275.38 109.2C273.98 107 270.18 105 268.78 106L249.38 121.8C247.58 114.8 247.38 110.6 245.18 105.4C243.58 103.2 240.18 101.2 238.58 102C229.98 106.2 223.18 114.2 216.18 121.8C215.98 115.2 216.78 111.6 216.58 106.4C217.18 103.8 210.58 99.4 209.98 102.8C209.18 107.8 208.58 113.6 208.58 120C208.58 122.8 208.78 125.8 208.98 128.8ZM408.149 55.8C409.149 43.6 410.349 31.4 411.349 24C411.349 20.2 403.749 18.2 403.349 21.4C402.349 27.4 401.149 39 400.949 51.4L400.549 56.2C375.549 57.6 362.949 59 349.349 61.4C345.949 62.2 350.149 67.4 353.949 66.8C369.349 64.2 381.949 63 399.549 62.2C395.149 88 380.349 124.6 367.749 127.2C361.349 128.6 360.549 122.6 360.549 116.8C360.549 113.2 360.749 109.8 360.349 108.2C358.949 105.6 353.349 103.2 352.949 105.4C351.749 111.2 347.349 118.4 342.749 123.2C339.749 125.8 333.749 130.8 329.749 128.2C326.749 126.2 326.349 120.6 326.549 117.4C326.949 114.6 328.349 108 331.349 107.2C334.549 106.6 329.149 100.6 325.749 101.4C323.949 102 322.749 103.8 321.549 105.8C320.149 108.8 319.549 112 319.549 115.2C319.549 117.8 319.949 120.4 320.749 122.8C322.949 129.4 329.549 134.8 336.149 134.8C344.349 134.8 350.749 127.4 354.349 122C357.149 128.4 363.349 133.8 370.749 133.6C381.949 133.4 391.949 112 397.749 94.6C397.549 105.2 397.149 123.6 397.149 141.4C397.149 161.4 397.549 180.4 399.149 186.4C400.149 191.4 403.949 195.2 405.549 194C406.949 193 405.349 190.6 404.949 186.6C404.349 179.4 404.149 168.4 404.149 156C404.149 133.2 404.949 106.2 405.549 90.6C405.549 85.2 406.749 73.6 407.549 61.8C427.949 61.6 446.949 60.2 465.949 60.2C484.349 60.2 503.549 61 517.149 63.6C518.749 63.8 519.749 63 519.549 61.4C518.749 60.2 516.749 58.2 514.949 57.4C503.549 55 484.549 54 465.149 54C451.349 54 437.349 54.6 408.149 55.8ZM424.568 137.2C425.368 140.4 431.568 143 431.368 140C432.168 130.8 453.168 109.6 464.568 110.2C464.568 111.6 464.168 114 464.168 116.8C464.168 121 465.168 126.2 469.768 129.6C474.368 132.6 478.768 133.6 483.168 133.6C495.968 133.6 510.968 126 515.368 119.4C518.368 115 519.368 108.6 517.568 110.8C511.168 119.4 489.568 127.8 479.168 127.8C476.968 127.8 474.768 127.4 472.768 126.4C471.368 120.6 472.968 115 472.368 110.2C471.568 107.6 468.568 105.2 465.768 104.4C454.368 100.8 437.368 116.8 431.168 123.8V106C431.568 78.6 431.968 52.6 434.568 27C434.568 24 426.768 21.6 426.768 24.4C425.368 50 424.368 74.6 424.368 102.2V130.6C424.368 134.4 424.368 136.8 424.568 137.2ZM652.979 126.4C654.379 126 662.779 122.8 661.179 121.2C660.179 119.6 652.779 121.4 651.379 121.8C642.379 124.4 607.979 128.4 584.379 128.4C576.179 128.4 569.579 128 565.379 126.8C560.979 125.4 559.179 121.6 559.179 117.2C559.179 113.8 560.179 110 562.179 106.8L562.579 106.2C563.579 103.8 556.779 99.4 555.579 101.6C555.579 101.8 555.179 102 552.179 106L549.379 105.2C543.779 103.6 538.379 102.8 533.779 102.8C525.779 102.8 519.379 104.8 515.579 107.8C511.979 110.6 510.379 113.8 510.379 117.2C510.379 119.4 510.979 121.6 512.379 124C515.179 128.4 520.779 131.6 525.779 131.6C535.779 131.6 544.779 123.2 551.779 118V118.2C551.779 124 563.179 132.4 569.779 134.2C574.779 135.4 581.179 136 588.379 136C610.379 136 638.979 131 652.979 126.4ZM521.779 125.6C518.179 125.6 516.779 123.8 516.779 121.6C516.779 118.8 518.979 115 521.779 113.2C526.379 110 532.179 108.8 537.779 108.8C540.579 108.8 543.379 109 545.979 109.6L548.379 110L547.979 110.4C542.379 116.6 529.979 125.6 521.779 125.6ZM733.874 134.6C736.874 137.6 739.474 136.8 742.874 135.8C747.874 134.2 753.074 123.6 755.274 116.2C758.074 118.4 762.874 119 767.874 119C774.274 119 781.274 117.8 784.674 116.6C789.074 115 792.674 110.2 787.474 111C782.074 111.8 775.474 112.8 769.074 112.8C764.874 112.8 760.674 112.2 757.074 111V110.8C758.874 104.8 754.474 101.4 752.074 102.4C750.274 103.6 748.674 106.8 749.874 111C747.874 116.8 741.474 132 737.874 132.2C733.874 127.4 733.074 112 733.874 105.8C734.274 104.4 732.674 102.4 731.474 101.6C729.474 100.6 727.674 101.2 727.474 102.6C726.874 105.4 726.674 108.2 726.674 111.2C726.674 119.6 728.874 128.6 733.874 134.6ZM783.324 133.2C785.524 134.6 787.924 135.2 790.524 135.2C801.124 135.2 814.324 125 819.924 120C822.524 127.2 827.524 131 834.124 132.6C842.524 134.6 856.324 128.2 861.324 123.2C872.324 112.2 869.324 107.2 865.924 110.6C858.724 118.6 841.524 128.8 831.324 126.8C827.724 125.8 826.724 121.8 826.924 118.4C827.324 114.6 829.124 111 830.124 108C831.524 105.6 824.724 101.2 823.524 103.4L820.124 108H819.924C814.924 105.8 809.324 104.6 803.724 104.6C796.724 104.6 789.924 106.4 784.524 110C779.524 113.4 777.324 117.8 777.324 122.2C777.324 126.4 779.324 130.2 783.324 133.2ZM786.924 128.8C783.924 128.6 782.724 126.4 783.324 124C785.524 114.8 798.724 111 808.724 111C811.724 111 814.524 111.4 816.524 112C809.524 119.4 796.524 127.6 786.924 128.8ZM863.402 135C864.202 138 870.802 140.6 870.602 138C871.402 132.2 871.402 131 872.002 129.4C876.802 115.6 893.402 103.4 903.402 103.6L903.202 105.2C903.002 106.8 905.802 108 908.602 104.8C910.002 103.2 907.202 99 902.602 98.2C891.602 96.4 876.802 108 871.802 114.4L872.002 106.6C872.002 105.4 870.802 103.4 869.002 102.4C867.002 101.4 865.002 101.4 865.002 102.8C862.202 128 862.602 133.2 863.402 135ZM919.066 137.2C922.066 138.4 926.866 139 931.866 139C937.066 139 942.266 138.4 945.866 137.4C951.066 136 954.866 130.4 950.466 126.6C946.466 123.4 940.466 120.4 932.866 116.2C928.866 113.8 924.266 111.8 925.466 109C927.666 103.8 945.866 100.4 953.266 97.8C954.866 95.8 950.866 92 947.666 92.4C937.466 93.8 915.666 100.2 917.266 110.8C918.066 116.8 923.666 118.8 928.866 121.8C932.866 124 940.466 127.8 945.466 130.4C940.266 131.6 932.266 132.6 925.866 132.6C923.266 132.6 921.066 132.4 919.266 132C914.866 131 916.666 136 919.066 137.2ZM971.001 131.4C971.201 134.6 978.201 136.4 978.001 133.8L978.201 129.2C982.001 120.8 997.201 111.2 1012 109.6C1011.6 112 1011.4 114.2 1011.4 116.4C1011.4 120 1012 123.4 1014 126.4C1017.6 131.6 1024 134 1029.8 134C1043.8 134 1056.8 123.4 1061.6 117.2C1064.6 113.4 1063.8 109 1063 109.4C1056.6 112.6 1039.2 128.4 1026.8 128.4C1024.2 128.4 1022 127.8 1020 126.2C1017.4 122.4 1019.6 114.8 1019.6 111.4C1019.6 108.4 1016 104.8 1012.2 104.4C1001 103.2 986.601 110.4 979.801 115.4L980.201 108.6C980.401 107.4 978.601 105.6 977.001 104.6C975.001 103.8 973.001 104 973.001 105.4L971.001 125.4C970.601 127.8 970.801 129.8 971.001 131.4ZM1061.3 132.2C1065.1 136.4 1070.5 137.6 1075.5 137.4C1089.3 136.8 1107.5 121 1111.3 114C1113.7 109.6 1111.7 108.4 1110.9 109.2C1104.9 115.2 1083.7 131.2 1071.3 131.2C1069.1 131.2 1067.1 130.6 1065.5 129.4C1062.5 126.8 1066.5 104.2 1068.1 102.6C1068.3 101.6 1067.1 100 1064.9 99.2C1062.5 98.6 1060.5 98.8 1060.3 99.8C1058.1 103.2 1056.9 109.4 1056.9 115.6C1056.9 122.2 1058.3 129 1061.3 132.2ZM1065.5 85.8C1067.3 86.8 1069.7 86.8 1070.3 86C1070.9 85 1072.5 80.6 1072.9 79.6C1073.5 78.4 1073.5 77 1073.5 76.2C1073.9 75.2 1072.3 73.6 1069.7 73C1067.7 72.2 1065.5 72.6 1065.5 73.8L1065.1 76.8C1064.7 77.8 1063.3 81.8 1062.9 82.4C1061.9 83.2 1063.1 85 1065.5 85.8Z" fill="black"/>
</svg>
