<svg width="1782" height="1782" viewBox="0 0 1782 1782" fill="none" xmlns="http://www.w3.org/2000/svg">
<g filter="url(#filter0_d)">
<path d="M22.5424 486.373L1291.63 18L1760 1287.08L490.915 1755.46L22.5424 486.373Z" fill="white"/>
</g>
<path d="M143.409 526.586L1225.86 127.092L1542.7 985.591L460.249 1385.08L143.409 526.586Z" fill="#FFA380"/>
<path d="M539.81 1479.99C539.18 1482.8 542.546 1484.13 543.814 1483.06C554.87 1472.01 572.325 1457.4 587.972 1445.27C591.66 1458.13 595.831 1470.67 601.532 1486.11C603.547 1491.57 605.71 1497.43 608.251 1503.91C596.946 1508.54 585.922 1513.51 573.313 1519.53C572.564 1519.96 572.641 1520.99 573.967 1521.71C574.198 1521.92 574.38 1522.01 574.878 1522.13C574.927 1522.26 575.11 1522.34 575.11 1522.34C576.421 1522.62 577.634 1522.62 578.201 1522.11L578.467 1522.01C589.754 1521.03 606.062 1525.45 617.263 1534.48C618.637 1535.33 619.528 1536.52 621.134 1537.59C622.363 1540.92 630.373 1559.75 632.421 1562.02C632.47 1562.15 632.652 1562.24 632.568 1562.42C633.627 1563.24 635.584 1564.03 636.6 1563.5C637.882 1562.88 636.961 1557.92 634.995 1552.6C632.882 1546.87 629.492 1540.55 626.315 1538.1L614.071 1506.15C621.031 1503.28 636.163 1497.54 644.286 1494.54C648.947 1492.82 653.924 1491.14 659.25 1489.17C660.316 1488.78 660.554 1487.78 659.095 1487.11C657.854 1486.21 656.045 1485.82 654.979 1486.21L644.859 1489.95C635.936 1493.24 620.138 1499.22 612.464 1502.2C605.519 1482.98 599.72 1467.26 592.527 1441.62C600.333 1435.72 607.271 1430.74 612.54 1426.98C623.045 1419.77 632.975 1414.29 641.498 1411.14C652.152 1407.21 660.809 1406.89 666.104 1410.99C666.799 1411.64 668.032 1410.88 667.176 1409.38C662.23 1402.13 650.509 1403.58 638.391 1408.05C628.27 1411.79 617.723 1417.65 610.337 1422.64C605.417 1426.12 598.697 1430.87 591.641 1436.35C591.528 1435.64 591.647 1435.14 591.815 1434.78C591.885 1434.14 590.861 1433.01 589.283 1432.84C587.292 1432.36 586.227 1432.75 585.708 1433.4C585.401 1435.02 585.787 1437.3 586.469 1440.38C571.088 1452.41 554.25 1466.64 544.918 1475.39L539.81 1479.99ZM585.063 1518.97C593.29 1515.03 601.75 1511.3 609.642 1508.09L618.165 1530.36C610.135 1525 597.948 1520.27 585.063 1518.97Z" fill="black"/>
<path d="M712.527 1474.5C715.33 1472.26 715.624 1470.18 711.811 1471.74C710.612 1472.18 705.615 1474.63 699.356 1476.94C696.293 1478.07 692.782 1479.22 689.305 1480.05C686.423 1478.39 682.854 1477.74 679.062 1478.53C676.35 1479.38 675.958 1481.19 676.114 1483.25C675.847 1483.35 675.763 1483.53 675.497 1483.63C672.827 1485.83 671.724 1493.5 674.72 1498.75C676.762 1502.23 681.615 1505.13 686.641 1503.58C692.914 1501.71 697.145 1496.37 695.886 1489.27C695.548 1487.12 694.678 1485.18 693.506 1483.64C701.777 1481.04 709.991 1476.65 712.527 1474.5ZM679.241 1485.58L679.409 1485.21C681.716 1485.72 684.541 1485.59 687.801 1484.99C691.701 1489 691.573 1497.67 685.811 1500.1C683.33 1501.17 681.325 1500.24 679.234 1496.63C677.192 1493.14 678.002 1487.55 679.241 1485.58Z" fill="black"/>
<path d="M716.734 1489.9C718.003 1491.7 723.037 1491.81 722.265 1490.13C721.372 1486.07 721.077 1485.27 721.084 1484.06C720.889 1473.69 728.944 1461.48 735.651 1459.16L735.911 1460.28C736.171 1461.39 738.331 1461.5 739.409 1458.68C739.948 1457.27 737.051 1455.16 733.792 1455.76C726.025 1457.27 719.021 1468.63 717.264 1474.12L715.481 1468.87C715.186 1468.08 713.896 1467.04 712.451 1466.81C710.874 1466.64 709.542 1467.13 709.886 1468.06C714.214 1485.53 715.759 1488.9 716.734 1489.9Z" fill="black"/>
<path d="M809.643 1500.09C811.607 1502.55 816.767 1503.82 815.237 1500.9C811.196 1495.28 805.847 1482.43 800.834 1468.85C796.362 1456.73 792.141 1444.06 789.129 1435.49L781.804 1412.77C782.87 1412.38 783.753 1411.9 784.769 1411.38C794.595 1406.84 809.684 1399.76 823.933 1394.5C831.923 1391.55 839.528 1389.2 845.963 1388.19C847.078 1387.93 847.547 1387.15 847.021 1386.13C846.193 1385.53 844.37 1384.69 842.975 1384.6C837.788 1385.3 830.715 1387.46 823.125 1390.26C810.074 1395.08 795.335 1401.88 784.311 1406.86C783.028 1407.48 781.745 1408.1 780.547 1408.55C777.246 1397.96 774.212 1387.28 772.686 1380.28C771.304 1377.76 765.815 1378.88 766.735 1380.96C769.249 1389.41 772.466 1400.18 775.767 1410.76C759.879 1418.14 750.817 1422.7 742.001 1427.92C739.934 1429.29 744.008 1431.72 746.391 1430.38C756.356 1424.59 766.449 1419.95 777.158 1414.94C779.756 1423.21 782.389 1431.17 784.566 1437.48C786.35 1442.72 788.871 1449.96 791.721 1457.68C798.307 1475.53 806.458 1495.97 809.643 1500.09Z" fill="black"/>
<path d="M815.612 1455.07C816.931 1457 821.699 1457.21 820.828 1455.26C819.1 1448.94 827.873 1429.66 835.611 1427.26C835.955 1428.19 836.279 1429.89 836.967 1431.75C837.999 1434.55 839.943 1437.77 843.841 1438.9C847.641 1439.77 850.817 1439.35 853.746 1438.27C862.269 1435.13 870.389 1426.38 871.697 1420.9C872.613 1417.24 871.707 1412.73 871.049 1414.64C868.901 1421.94 856.583 1432.84 849.658 1435.39C848.193 1435.93 846.63 1436.21 845.052 1436.03C842.695 1432.52 842.384 1428.39 840.805 1425.35C839.633 1423.81 837.046 1422.95 834.985 1423.11C826.51 1423.51 819.122 1438.34 816.714 1444.53L812.34 1432.67C805.873 1414.33 799.75 1396.92 795.19 1379.24C794.453 1377.24 788.67 1377.56 789.358 1379.42C794.717 1396.81 800.096 1413.44 806.878 1431.81L813.857 1450.72C814.791 1453.25 815.381 1454.85 815.612 1455.07Z" fill="black"/>
<path d="M897.197 1426.02C918.041 1417.72 946.671 1391.57 945.797 1383.87C945.67 1382.71 944.24 1382.93 943.771 1383.71C941.208 1387.84 909.418 1417.73 892.373 1424.02C885.981 1426.38 878.69 1425.89 875.734 1419.11C883.388 1416.89 887.366 1409.22 885.197 1404.57C884.474 1403.02 882.784 1402.14 880.576 1401.89C879.048 1401.85 877.8 1402.16 876.468 1402.65C870.875 1404.72 867.787 1410.7 869.445 1417.65C872.684 1430.53 886.375 1430.32 897.197 1426.02ZM881.286 1405.87C881.786 1408.86 878.046 1415.54 874.723 1415.55C874.027 1412.03 875.447 1407.26 881.286 1405.87Z" fill="black"/>
<path d="M992.513 1386.76C994.322 1387.15 996.068 1386.96 997.799 1386.32C1004.86 1383.71 1011.14 1373.68 1013.64 1368.97C1017.14 1373.13 1021.4 1374.43 1026.19 1373.87C1032.28 1373.14 1039.89 1365.49 1041.99 1360.93C1046.61 1350.9 1043.39 1348.31 1041.96 1351.41C1039.13 1358.51 1030.18 1369.52 1022.9 1370.7C1020.26 1370.92 1018.61 1368.5 1017.91 1366.19C1017.24 1363.56 1017.55 1360.72 1017.48 1358.48C1017.82 1356.53 1012.22 1355.27 1011.96 1357.03L1010.82 1360.93L1010.69 1360.98C1006.82 1360.75 1002.8 1361.32 999.069 1362.7C994.408 1364.42 990.322 1367.29 987.611 1371.01C985.118 1374.51 984.734 1377.98 985.815 1380.91C986.847 1383.7 989.113 1385.74 992.513 1386.76ZM993.829 1382.94C991.783 1383.55 990.443 1382.38 990.253 1380.63C989.457 1373.96 997.312 1368.19 1003.97 1365.73C1005.97 1364.99 1007.93 1364.57 1009.41 1364.48C1006.57 1371.13 999.926 1379.78 993.829 1382.94Z" fill="black"/>
<path d="M1067.75 1363.53C1076.75 1359.6 1082.86 1349.93 1083.74 1340.83C1084.23 1336.42 1083.63 1333.16 1081.75 1337.48C1078.31 1345.41 1072.43 1358.17 1059.92 1362.79C1055.25 1364.51 1049.02 1361.97 1047.69 1359.58C1052.35 1357.86 1056.9 1352.55 1057.05 1347.65C1057.09 1343.25 1051.76 1340.68 1047.63 1342.21C1041.2 1344.88 1039.42 1352.35 1041.58 1358.21C1042.07 1359.54 1042.83 1360.77 1043.67 1361.82C1049.38 1369.1 1060.04 1366.83 1067.75 1363.53ZM1051.43 1345.95C1053.44 1346.87 1051.03 1351.84 1046.37 1356.44C1045.01 1353.16 1047.6 1344.18 1051.43 1345.95Z" fill="black"/>
<path d="M1088.43 1354.38C1090.72 1354.44 1094.07 1353.66 1097.4 1352.44C1100.86 1351.16 1104.17 1349.48 1106.33 1347.93C1109.44 1345.72 1110.6 1341.06 1106.73 1339.61C1103.28 1338.46 1098.55 1337.94 1092.46 1337.01C1089.21 1336.39 1085.65 1336.19 1085.76 1334.03C1085.95 1330.03 1097.23 1323.29 1101.52 1319.74C1102.1 1318.02 1098.5 1316.47 1096.47 1317.52C1090.02 1320.96 1077.08 1330.58 1080.75 1337.25C1082.75 1341.04 1086.97 1341 1091.17 1341.72C1094.38 1342.2 1100.37 1342.86 1104.34 1343.37C1101.17 1345.44 1096.09 1348.08 1091.83 1349.65C1090.1 1350.29 1088.58 1350.69 1087.29 1350.87C1084.11 1351.29 1086.54 1354.17 1088.43 1354.38Z" fill="black"/>
<path d="M1139.18 1378.47C1141.15 1380.92 1146.31 1382.2 1144.78 1379.28C1140.74 1373.66 1135.39 1360.81 1130.38 1347.22C1125.9 1335.11 1121.68 1322.44 1118.67 1313.87L1111.35 1291.15C1112.41 1290.76 1113.29 1290.28 1114.31 1289.75C1124.14 1285.22 1139.23 1278.14 1153.48 1272.88C1161.47 1269.93 1169.07 1267.58 1175.51 1266.57C1176.62 1266.3 1177.09 1265.53 1176.56 1264.51C1175.73 1263.91 1173.91 1263.07 1172.52 1262.98C1167.33 1263.68 1160.26 1265.84 1152.67 1268.64C1139.62 1273.46 1124.88 1280.26 1113.85 1285.23C1112.57 1285.86 1111.29 1286.48 1110.09 1286.93C1106.79 1276.34 1103.75 1265.66 1102.23 1258.66C1100.85 1256.14 1095.36 1257.26 1096.28 1259.34C1098.79 1267.79 1102.01 1278.56 1105.31 1289.14C1089.42 1296.52 1080.36 1301.07 1071.54 1306.3C1069.48 1307.66 1073.55 1310.09 1075.93 1308.76C1085.9 1302.96 1095.99 1298.33 1106.7 1293.32C1109.3 1301.59 1111.93 1309.55 1114.11 1315.85C1115.89 1321.1 1118.41 1328.34 1121.26 1336.06C1127.85 1353.91 1136 1374.35 1139.18 1378.47Z" fill="black"/>
<path d="M1145.15 1333.45C1146.47 1335.38 1151.24 1335.59 1150.37 1333.64C1148.64 1327.32 1157.42 1308.04 1165.15 1305.64C1165.5 1306.57 1165.82 1308.27 1166.51 1310.13C1167.54 1312.93 1169.48 1316.15 1173.38 1317.28C1177.18 1318.15 1180.36 1317.73 1183.29 1316.65C1191.81 1313.5 1199.93 1304.76 1201.24 1299.28C1202.16 1295.62 1201.25 1291.11 1200.59 1293.02C1198.44 1300.31 1186.12 1311.22 1179.2 1313.77C1177.73 1314.31 1176.17 1314.59 1174.59 1314.41C1172.24 1310.89 1171.93 1306.77 1170.35 1303.72C1169.18 1302.19 1166.59 1301.33 1164.53 1301.48C1156.05 1301.89 1148.66 1316.72 1146.26 1322.9L1141.88 1311.05C1135.41 1292.71 1129.29 1275.3 1124.73 1257.61C1124 1255.62 1118.21 1255.94 1118.9 1257.8C1124.26 1275.19 1129.64 1291.81 1136.42 1310.19L1143.4 1329.1C1144.33 1331.63 1144.92 1333.23 1145.15 1333.45Z" fill="black"/>
<path d="M1237.55 1239.58C1237.07 1239.91 1236.54 1240.11 1236.01 1240.3C1233.17 1230.15 1230.46 1219.95 1229.34 1214.47C1228.81 1211.79 1221.81 1212.1 1222.2 1214.38C1224.68 1223.15 1226.94 1233.36 1228.48 1243.69C1212.86 1250.96 1203.84 1255.65 1195.24 1260.64C1193.18 1262.01 1197.25 1264.44 1199.63 1263.11C1209.25 1257.59 1218.89 1252.97 1229.25 1248.24C1232.48 1273.38 1230.25 1298.11 1212.42 1303.48C1209.97 1304.23 1207.98 1303.76 1206.27 1302.42C1204.72 1301.48 1203.73 1300.03 1202.69 1298.44C1210.6 1298.55 1215.49 1288.43 1213.36 1285.13C1212.47 1283.94 1210.83 1281.97 1208.63 1281.73C1206.73 1281.52 1204.99 1281.71 1203.52 1282.25C1200.59 1283.33 1198.37 1285.51 1197.31 1287.57C1195.84 1290.53 1195.39 1296.3 1197.3 1299.83C1199.86 1306.75 1209.75 1308.55 1216.37 1306.41C1234.6 1300.44 1237.3 1275.38 1236.17 1259.61L1238.83 1268.46C1240.19 1272.95 1243.26 1282.11 1247 1292.23C1252.6 1307.41 1259.72 1325.06 1265.34 1333.73C1267.39 1336 1272.04 1336.7 1270.42 1333.97C1266.48 1328.62 1261.15 1316.21 1256.28 1303.03C1251.71 1290.64 1247.43 1277.4 1244.63 1268.59C1243.3 1265 1240.25 1255.08 1237.26 1244.53C1237.53 1244.43 1237.75 1244.2 1238.01 1244.1C1247.84 1239.57 1262.93 1232.48 1277.18 1227.23C1285.17 1224.28 1292.77 1221.92 1299.21 1220.91C1300.32 1220.65 1300.79 1219.87 1300.26 1218.86C1299.44 1218.25 1297.61 1217.41 1296.22 1217.32C1291.03 1218.03 1283.96 1220.18 1276.37 1222.99C1263.32 1227.8 1248.58 1234.6 1237.55 1239.58ZM1208.37 1285.15C1208.87 1288.14 1205.27 1294.77 1201.81 1294.83C1201.88 1291.33 1202.54 1286.55 1208.37 1285.15Z" fill="black"/>
<path d="M1268.52 1284.14C1272.08 1286 1275.97 1285.47 1279.25 1284.11C1288.29 1280.32 1296.53 1265.33 1297.34 1259.73C1297.85 1256.21 1296.23 1255.9 1295.89 1256.63C1293.37 1262.1 1283.19 1277.97 1274.93 1281.01C1273.47 1281.55 1271.99 1281.65 1270.63 1281.24C1267.99 1280.25 1265.1 1264.21 1265.77 1262.76C1265.66 1262.04 1264.47 1261.27 1262.81 1261.28C1261.06 1261.47 1259.78 1262.09 1259.89 1262.81C1259.26 1265.61 1259.99 1270.04 1261.51 1274.16C1263.13 1278.56 1265.73 1282.74 1268.52 1284.14ZM1259.91 1252.21C1261.36 1252.43 1262.95 1251.84 1263.16 1251.16C1263.31 1250.35 1263.3 1247.03 1263.32 1246.26C1263.42 1245.32 1263.08 1244.38 1262.88 1243.85C1262.9 1243.09 1261.44 1242.41 1259.56 1242.65C1258.04 1242.61 1256.67 1243.42 1256.96 1244.22L1257.43 1246.31C1257.41 1247.08 1257.46 1250.09 1257.35 1250.58C1256.88 1251.36 1258.12 1252.27 1259.91 1252.21Z" fill="black"/>
<path d="M1299.43 1262.44C1298.63 1256.99 1301.74 1250.24 1307.06 1249.49C1307.46 1251 1307.32 1252.26 1307.25 1252.89C1306.96 1254.97 1308.36 1255.06 1309.49 1254.03C1310.54 1253.19 1312.99 1251.23 1312.16 1248.96C1311.53 1247.68 1309.75 1246.53 1307.67 1246.23C1305.6 1245.94 1303.77 1246.31 1302.3 1246.85C1299.37 1247.93 1297.42 1250.02 1296.09 1252.17C1293.96 1255.83 1293.69 1260.02 1294.94 1263.79C1297.73 1272.6 1307.24 1274.99 1314.96 1272.14C1330.86 1265.21 1335.77 1251.45 1336.43 1246.67C1336.72 1244.59 1334.95 1242.67 1334.35 1243.5C1328.97 1253.51 1321.98 1264.1 1311.22 1268.98C1305.23 1271.19 1300.34 1268.61 1299.43 1262.44Z" fill="black"/>
<path d="M1394.43 1250.53C1402.82 1247.43 1408.17 1229.12 1408.11 1221.57C1408.05 1219.78 1406.55 1216.55 1405.91 1218.9C1404.85 1222.17 1396.75 1249.82 1388.25 1248.12C1384.58 1247.2 1380.03 1238.14 1375.65 1226.29C1367.15 1203.25 1359.22 1169.86 1359.08 1167.04C1358.83 1166.37 1357.38 1165.7 1355.8 1165.53C1354.27 1165.49 1353.52 1165.91 1353.68 1166.76C1354.02 1172.99 1360.85 1203 1369.01 1225.11C1373.09 1236.16 1377.51 1245.27 1381.52 1248.33C1385.56 1251.08 1390.17 1252.1 1394.43 1250.53Z" fill="black"/>
<path d="M1443.92 1204.57C1446.72 1202.33 1447.01 1200.25 1443.2 1201.81C1442 1202.25 1437.01 1204.7 1430.75 1207.01C1427.68 1208.14 1424.17 1209.29 1420.7 1210.12C1417.81 1208.46 1414.25 1207.81 1410.45 1208.6C1407.74 1209.45 1407.35 1211.26 1407.5 1213.32C1407.24 1213.42 1407.15 1213.6 1406.89 1213.7C1404.22 1215.9 1403.11 1223.57 1406.11 1228.82C1408.15 1232.3 1413.01 1235.2 1418.03 1233.65C1424.3 1231.79 1428.54 1226.44 1427.28 1219.34C1426.94 1217.2 1426.07 1215.25 1424.9 1213.71C1433.17 1211.11 1441.38 1206.72 1443.92 1204.57ZM1410.63 1215.65L1410.8 1215.28C1413.11 1215.79 1415.93 1215.66 1419.19 1215.06C1423.09 1219.07 1422.96 1227.74 1417.2 1230.17C1414.72 1231.24 1412.72 1230.31 1410.62 1226.7C1408.58 1223.21 1409.39 1217.62 1410.63 1215.65Z" fill="black"/>
<path d="M1453.98 1217.5C1456.72 1218.76 1458.25 1217.59 1460.27 1216.09C1463.21 1213.8 1464.07 1205.46 1463.71 1199.99C1466.12 1200.77 1469.46 1199.99 1472.79 1198.76C1477.05 1197.19 1481.42 1194.67 1483.39 1193.03C1485.92 1190.89 1487.14 1186.81 1483.87 1188.62C1480.48 1190.48 1476.33 1192.76 1472.06 1194.34C1469.27 1195.37 1466.32 1196 1463.63 1196.09L1463.58 1195.95C1463.31 1191.52 1459.54 1190.33 1458.19 1191.59C1457.29 1192.83 1457.01 1195.36 1458.84 1197.86C1458.93 1202.21 1458.41 1213.9 1456.06 1214.92C1452.21 1212.71 1447.9 1202.65 1446.91 1198.33C1446.83 1197.3 1445.27 1196.36 1444.28 1196.12C1442.7 1195.95 1441.65 1196.79 1441.86 1197.77C1442.15 1199.78 1442.7 1201.69 1443.44 1203.69C1445.5 1209.28 1449.18 1214.74 1453.98 1217.5Z" fill="black"/>
<path d="M1507.84 1201.11C1516.83 1197.18 1522.94 1187.51 1523.82 1178.41C1524.31 1174 1523.71 1170.74 1521.83 1175.06C1518.4 1182.99 1512.52 1195.75 1500 1200.37C1495.34 1202.09 1489.1 1199.55 1487.77 1197.17C1492.43 1195.45 1496.98 1190.14 1497.14 1185.24C1497.18 1180.83 1491.84 1178.26 1487.71 1179.79C1481.28 1182.46 1479.5 1189.93 1481.66 1195.79C1482.15 1197.12 1482.91 1198.35 1483.75 1199.4C1489.47 1206.68 1500.13 1204.41 1507.84 1201.11ZM1491.51 1183.53C1493.52 1184.45 1491.12 1189.42 1486.46 1194.02C1485.1 1190.74 1487.68 1181.76 1491.51 1183.53Z" fill="black"/>
<path d="M1527.06 1190.83C1528.33 1192.64 1533.37 1192.74 1532.59 1191.06C1531.7 1187 1531.41 1186.21 1531.41 1184.99C1531.22 1174.62 1539.27 1162.42 1545.98 1160.1L1546.24 1161.21C1546.5 1162.33 1548.66 1162.44 1549.74 1159.62C1550.28 1158.21 1547.38 1156.1 1544.12 1156.7C1536.35 1158.2 1529.35 1169.56 1527.59 1175.05L1525.81 1169.81C1525.52 1169.01 1524.23 1167.98 1522.78 1167.75C1521.2 1167.58 1519.87 1168.07 1520.22 1169C1524.54 1186.47 1526.09 1189.83 1527.06 1190.83Z" fill="black"/>
<path d="M1564.67 1178.62C1566.96 1178.68 1570.3 1177.9 1573.63 1176.67C1577.1 1175.4 1580.41 1173.72 1582.56 1172.17C1585.68 1169.96 1586.83 1165.3 1582.97 1163.85C1579.52 1162.7 1574.79 1162.18 1568.7 1161.25C1565.44 1160.63 1561.89 1160.43 1562 1158.27C1562.19 1154.27 1573.47 1147.53 1577.76 1143.98C1578.33 1142.26 1574.73 1140.71 1572.7 1141.76C1566.25 1145.2 1553.31 1154.82 1556.98 1161.48C1558.99 1165.28 1563.21 1165.24 1567.41 1165.96C1570.61 1166.44 1576.61 1167.1 1580.58 1167.61C1577.41 1169.68 1572.33 1172.31 1568.07 1173.89C1566.33 1174.53 1564.82 1174.93 1563.52 1175.11C1560.35 1175.52 1562.77 1178.41 1564.67 1178.62Z" fill="black"/>
<defs>
<filter id="filter0_d" x="0.542358" y="0" width="1781.46" height="1781.46" filterUnits="userSpaceOnUse" color-interpolation-filters="sRGB">
<feFlood flood-opacity="0" result="BackgroundImageFix"/>
<feColorMatrix in="SourceAlpha" type="matrix" values="0 0 0 0 0 0 0 0 0 0 0 0 0 0 0 0 0 0 127 0"/>
<feOffset dy="4"/>
<feGaussianBlur stdDeviation="11"/>
<feColorMatrix type="matrix" values="0 0 0 0 0 0 0 0 0 0 0 0 0 0 0 0 0 0 0.15 0"/>
<feBlend mode="normal" in2="BackgroundImageFix" result="effect1_dropShadow"/>
<feBlend mode="normal" in="SourceGraphic" in2="effect1_dropShadow" result="shape"/>
</filter>
</defs>
</svg>
